<svg width="45" height="45" viewBox="0 0 45 45" fill="none" xmlns="http://www.w3.org/2000/svg">
<path fill-rule="evenodd" clip-rule="evenodd" d="M5.15625 4.40625C4.74204 4.40625 4.40625 4.74204 4.40625 5.15625C4.40625 5.57046 4.74204 5.90625 5.15625 5.90625H9.25817L10.0536 9.08815L13.5707 23.1563C11.6138 23.1687 10.0312 24.7589 10.0312 26.7188C10.0312 28.6863 11.6262 30.2812 13.5938 30.2812H35.1562C35.5705 30.2812 35.9062 29.9455 35.9062 29.5312C35.9062 29.117 35.5705 28.7812 35.1562 28.7812H13.5938C12.4547 28.7812 11.5312 27.8578 11.5312 26.7188C11.5312 25.5797 12.4547 24.6562 13.5938 24.6562H14.5312H35.1562C35.5004 24.6562 35.8004 24.422 35.8839 24.0882L39.6339 9.08815C39.6899 8.8641 39.6395 8.62673 39.4974 8.44469C39.3553 8.26265 39.1372 8.15625 38.9062 8.15625H11.3668L10.5714 4.97435C10.4879 4.64047 10.1879 4.40625 9.84375 4.40625H5.15625ZM14.5312 34.4062C13.0815 34.4062 11.9062 35.5815 11.9062 37.0312C11.9062 38.481 13.0815 39.6562 14.5312 39.6562C15.981 39.6562 17.1562 38.481 17.1562 37.0312C17.1562 35.5815 15.981 34.4062 14.5312 34.4062ZM33.2812 34.4062C31.8315 34.4062 30.6562 35.5815 30.6562 37.0312C30.6562 38.481 31.8315 39.6562 33.2812 39.6562C34.731 39.6562 35.9062 38.481 35.9062 37.0312C35.9062 35.5815 34.731 34.4062 33.2812 34.4062Z" fill="#5AC9E8"/>
</svg>
