<svg width="22" height="21" viewBox="0 0 22 21" fill="none" xmlns="http://www.w3.org/2000/svg">
<path d="M6.61554 7.58275C7.93237 11.175 9.29562 12.6083 12.7637 14.135L11.2607 16.2458C7.27828 14.3391 5.29469 11.1252 4.36049 8.61706L6.61554 7.58275Z" fill="#BEC1C2"/>
<path d="M7.72025 2.6233C8.42439 2.62055 8.95978 3.20646 8.91178 3.86992C8.83625 4.91397 8.91667 5.66724 9.13321 6.60094C9.25215 7.11383 8.98306 7.63474 8.55543 7.97026C7.97905 8.42249 7.53871 8.99872 7.18873 9.49476C6.70366 10.1823 5.03431 10.1329 4.66513 9.3839C3.90642 7.84457 3.39224 5.00861 4.50018 3.09258C4.67421 2.79161 5.02463 2.63384 5.38772 2.63242L7.72025 2.6233Z" fill="#BEC1C2"/>
<path d="M18.4088 14.0144C18.4964 13.3546 17.9449 12.7821 17.2417 12.7474C16.1351 12.6926 15.353 12.5266 14.3975 12.2113C13.8727 12.0381 13.2928 12.2278 12.8887 12.5884C12.344 13.0744 11.6853 13.4179 11.1218 13.6864C10.3407 14.0585 10.1919 15.6295 10.9348 16.0657C12.4617 16.9622 15.381 17.7853 17.5283 16.977C17.8656 16.85 18.0736 16.5404 18.1187 16.2002L18.4088 14.0144Z" fill="#BEC1C2"/>
</svg>
