<svg width="17" height="12" viewBox="0 0 17 12" fill="none" xmlns="http://www.w3.org/2000/svg">
<path fill-rule="evenodd" clip-rule="evenodd" d="M15.4404 0C15.9498 0 16.4021 0.223678 16.6867 0.569653L8.42038 6.92011L0.227677 0.684971C0.501602 0.274188 0.995661 0 1.55963 0H15.4404ZM0 10.5714V1.81184L5.87848 6.28571L0.012118 10.7504C0.00412183 10.6918 0 10.632 0 10.5714ZM0.537623 11.6506C0.811339 11.8682 1.16869 12 1.55963 12H15.4404C15.7764 12 16.0876 11.9027 16.3422 11.7371L10.0956 6.93829L8.97231 7.80125C8.65462 8.04532 8.1918 8.0463 7.87289 7.80358L6.73264 6.93579L0.537623 11.6506ZM10.9451 6.28571L16.9574 10.9045C16.9852 10.7977 17 10.6861 17 10.5714V1.63415L10.9451 6.28571Z" fill="#BEC1C2"/>
</svg>
