<svg width="12" height="16" viewBox="0 0 12 16" fill="none" xmlns="http://www.w3.org/2000/svg">
<path fill-rule="evenodd" clip-rule="evenodd" d="M2.8253 0.749418C4.57319 -0.266181 6.72163 -0.24843 8.45312 0.795916C10.1676 1.86153 11.2096 3.76334 11.1999 5.80916C11.16 7.84156 10.0426 9.75201 8.64599 11.2289C7.83988 12.0851 6.9381 12.8423 5.95908 13.4848C5.85825 13.5431 5.74781 13.5822 5.63319 13.6C5.52289 13.5953 5.41546 13.5627 5.32061 13.5052C3.82595 12.5397 2.51467 11.3072 1.44987 9.86718C0.558872 8.6651 0.0526686 7.21281 9.29387e-07 5.70754C-0.00115574 3.6578 1.07741 1.76502 2.8253 0.749418ZM3.83562 6.55592C4.12964 7.28077 4.82363 7.75357 5.59357 7.75358C6.09797 7.7572 6.58284 7.55516 6.94014 7.19248C7.29744 6.8298 7.49748 6.33661 7.49569 5.8228C7.49838 5.03852 7.03666 4.32994 6.3261 4.02791C5.61555 3.72588 4.79632 3.88997 4.25094 4.44357C3.70556 4.99717 3.5416 5.83108 3.83562 6.55592Z" fill="#BEC1C2"/>
<ellipse opacity="0.4" cx="5.59961" cy="15.2001" rx="4" ry="0.800001" fill="#BEC1C2"/>
</svg>
