<svg width="28" height="28" viewBox="0 0 28 28" fill="none" xmlns="http://www.w3.org/2000/svg">
<path d="M22.1667 12.8333H5.83333C4.54467 12.8333 3.5 13.878 3.5 15.1666V23.3333C3.5 24.622 4.54467 25.6666 5.83333 25.6666H22.1667C23.4553 25.6666 24.5 24.622 24.5 23.3333V15.1666C24.5 13.878 23.4553 12.8333 22.1667 12.8333Z" stroke="#184A72" stroke-width="2" stroke-linecap="round" stroke-linejoin="round"/>
<path d="M8.16663 12.8333V8.16665C8.16663 6.61955 8.78121 5.13582 9.87517 4.04186C10.9691 2.94789 12.4529 2.33331 14 2.33331C15.5471 2.33331 17.0308 2.94789 18.1247 4.04186C19.2187 5.13582 19.8333 6.61955 19.8333 8.16665V12.8333" stroke="#184A72" stroke-width="2" stroke-linecap="round" stroke-linejoin="round"/>
</svg>
